<?xml version="1.0" encoding="UTF-8"?>
<svg xmlns="http://www.w3.org/2000/svg" version="1.1" width="500" height="500" viewBox="0 0 500 500"><rect x="0" y="0" width="500" height="500" fill="#ffffff"/><g transform="scale(20)"><g transform="translate(0,0)"><path fill-rule="evenodd" d="M9 0L9 1L8 1L8 2L9 2L9 3L8 3L8 4L9 4L9 5L8 5L8 7L9 7L9 8L6 8L6 9L5 9L5 8L0 8L0 9L2 9L2 11L0 11L0 12L1 12L1 13L0 13L0 17L1 17L1 14L3 14L3 13L4 13L4 14L6 14L6 15L5 15L5 16L6 16L6 17L7 17L7 16L9 16L9 17L8 17L8 19L9 19L9 20L8 20L8 25L11 25L11 23L13 23L13 24L14 24L14 23L15 23L15 25L16 25L16 23L15 23L15 22L17 22L17 25L18 25L18 24L19 24L19 23L20 23L20 24L21 24L21 23L22 23L22 25L25 25L25 24L24 24L24 23L25 23L25 21L23 21L23 19L25 19L25 15L24 15L24 14L25 14L25 12L24 12L24 11L25 11L25 9L24 9L24 8L23 8L23 10L22 10L22 11L21 11L21 10L20 10L20 11L19 11L19 9L20 9L20 8L19 8L19 9L18 9L18 8L17 8L17 5L16 5L16 3L17 3L17 2L16 2L16 3L15 3L15 2L14 2L14 1L13 1L13 2L12 2L12 1L11 1L11 0ZM16 0L16 1L17 1L17 0ZM9 1L9 2L11 2L11 1ZM10 3L10 4L11 4L11 5L10 5L10 6L9 6L9 7L10 7L10 9L9 9L9 10L8 10L8 9L6 9L6 10L5 10L5 9L4 9L4 10L3 10L3 12L5 12L5 11L6 11L6 12L7 12L7 13L6 13L6 14L9 14L9 15L12 15L12 14L14 14L14 13L15 13L15 12L17 12L17 13L19 13L19 14L23 14L23 11L22 11L22 13L21 13L21 11L20 11L20 12L19 12L19 11L18 11L18 12L17 12L17 10L16 10L16 9L17 9L17 8L16 8L16 6L15 6L15 5L14 5L14 3ZM11 5L11 6L10 6L10 7L11 7L11 8L12 8L12 7L13 7L13 6L14 6L14 7L15 7L15 6L14 6L14 5ZM11 6L11 7L12 7L12 6ZM13 8L13 9L12 9L12 11L11 11L11 10L10 10L10 11L11 11L11 12L9 12L9 11L8 11L8 12L9 12L9 13L11 13L11 14L12 14L12 13L14 13L14 12L12 12L12 11L16 11L16 10L13 10L13 9L16 9L16 8ZM21 8L21 9L22 9L22 8ZM4 10L4 11L5 11L5 10ZM6 10L6 11L7 11L7 10ZM11 12L11 13L12 13L12 12ZM15 14L15 16L17 16L17 15L18 15L18 16L19 16L19 15L18 15L18 14L17 14L17 15L16 15L16 14ZM3 15L3 16L2 16L2 17L3 17L3 16L4 16L4 15ZM6 15L6 16L7 16L7 15ZM13 15L13 18L9 18L9 19L11 19L11 21L12 21L12 22L13 22L13 23L14 23L14 20L13 20L13 18L14 18L14 19L15 19L15 18L16 18L16 17L15 17L15 18L14 18L14 15ZM20 15L20 16L21 16L21 17L22 17L22 18L21 18L21 19L22 19L22 18L24 18L24 16L21 16L21 15ZM10 16L10 17L12 17L12 16ZM17 17L17 20L20 20L20 17ZM18 18L18 19L19 19L19 18ZM9 20L9 23L11 23L11 22L10 22L10 20ZM12 20L12 21L13 21L13 20ZM18 21L18 23L19 23L19 21ZM22 21L22 22L23 22L23 23L24 23L24 22L23 22L23 21ZM0 0L7 0L7 7L0 7ZM1 1L1 6L6 6L6 1ZM2 2L5 2L5 5L2 5ZM18 0L25 0L25 7L18 7ZM19 1L19 6L24 6L24 1ZM20 2L23 2L23 5L20 5ZM0 18L7 18L7 25L0 25ZM1 19L1 24L6 24L6 19ZM2 20L5 20L5 23L2 23Z" fill="#000000"/></g></g></svg>
